<svg width="729" height="227" viewBox="0 0 729 227" fill="none" xmlns="http://www.w3.org/2000/svg">
<path d="M80.344 226.44C64.792 226.44 50.968 223.08 38.872 216.36C26.968 209.448 17.56 199.944 10.648 187.848C3.928 175.752 0.568001 161.928 0.568001 146.376C0.568001 130.632 3.736 116.808 10.072 104.904C16.6 92.808 25.528 83.304 36.856 76.392C48.184 69.48 61.24 66.024 76.024 66.024C90.616 66.024 103.288 69.384 114.04 76.104C124.984 82.632 133.432 91.752 139.384 103.464C145.336 115.176 148.312 128.52 148.312 143.496C148.312 146.568 147.352 149.064 145.432 150.984C143.512 152.712 141.016 153.576 137.944 153.576H15.544V135.144H140.248L127.864 144.072C128.056 132.936 126.04 122.952 121.816 114.12C117.592 105.288 111.544 98.376 103.672 93.384C95.992 88.392 86.776 85.896 76.024 85.896C65.08 85.896 55.48 88.488 47.224 93.672C38.968 98.856 32.536 106.056 27.928 115.272C23.512 124.296 21.304 134.664 21.304 146.376C21.304 158.088 23.8 168.456 28.792 177.48C33.976 186.504 40.984 193.608 49.816 198.792C58.648 203.976 68.824 206.568 80.344 206.568C87.256 206.568 94.168 205.416 101.08 203.112C108.184 200.616 113.848 197.544 118.072 193.896C120.184 192.168 122.584 191.304 125.272 191.304C127.96 191.112 130.264 191.784 132.184 193.32C134.68 195.624 135.928 198.12 135.928 200.808C136.12 203.496 135.064 205.8 132.76 207.72C126.424 213.096 118.36 217.608 108.568 221.256C98.776 224.712 89.368 226.44 80.344 226.44ZM251.913 226.44C236.745 226.44 223.113 222.984 211.017 216.072C198.921 208.968 189.321 199.368 182.217 187.272C175.305 175.176 171.849 161.448 171.849 146.088C171.849 130.92 175.209 117.288 181.929 105.192C188.841 93.096 198.153 83.592 209.865 76.68C221.577 69.576 234.825 66.024 249.609 66.024C262.473 66.024 274.089 68.808 284.457 74.376C294.825 79.752 303.177 86.952 309.513 95.976V11.304C309.513 7.84799 310.569 5.15999 312.681 3.23999C314.793 1.12799 317.481 0.0719948 320.745 0.0719948C324.009 0.0719948 326.697 1.12799 328.809 3.23999C330.921 5.15999 331.977 7.84799 331.977 11.304V147.24C331.593 162.216 327.849 175.752 320.745 187.848C313.833 199.752 304.329 209.16 292.233 216.072C280.329 222.984 266.889 226.44 251.913 226.44ZM251.913 206.28C263.049 206.28 272.937 203.688 281.577 198.504C290.409 193.128 297.321 185.928 302.313 176.904C307.497 167.88 310.089 157.608 310.089 146.088C310.089 134.76 307.497 124.584 302.313 115.56C297.321 106.344 290.409 99.144 281.577 93.96C272.937 88.776 263.049 86.184 251.913 86.184C240.969 86.184 231.081 88.776 222.249 93.96C213.417 99.144 206.409 106.344 201.225 115.56C196.041 124.584 193.449 134.76 193.449 146.088C193.449 157.608 196.041 167.88 201.225 176.904C206.409 185.928 213.417 193.128 222.249 198.504C231.081 203.688 240.969 206.28 251.913 206.28ZM399.666 225C396.21 225 393.426 224.04 391.314 222.12C389.394 220.008 388.434 217.224 388.434 213.768V78.696C388.434 75.24 389.394 72.552 391.314 70.632C393.426 68.52 396.21 67.464 399.666 67.464C402.93 67.464 405.522 68.52 407.442 70.632C409.554 72.552 410.61 75.24 410.61 78.696V213.768C410.61 217.224 409.554 220.008 407.442 222.12C405.522 224.04 402.93 225 399.666 225ZM399.378 37.512C395.154 37.512 391.506 35.976 388.434 32.904C385.362 29.832 383.826 26.088 383.826 21.672C383.826 16.872 385.362 13.128 388.434 10.44C391.698 7.55998 395.442 6.11999 399.666 6.11999C403.698 6.11999 407.25 7.55998 410.322 10.44C413.586 13.128 415.218 16.872 415.218 21.672C415.218 26.088 413.682 29.832 410.61 32.904C407.538 35.976 403.794 37.512 399.378 37.512ZM528.708 225C518.532 225 509.412 222.6 501.348 217.8C493.476 213 487.236 206.472 482.628 198.216C478.02 189.768 475.716 180.168 475.716 169.416V28.584C475.716 25.32 476.676 22.632 478.596 20.52C480.708 18.408 483.396 17.352 486.66 17.352C489.924 17.352 492.612 18.408 494.724 20.52C496.836 22.632 497.892 25.32 497.892 28.584V169.416C497.892 179.208 500.772 187.272 506.532 193.608C512.292 199.752 519.684 202.824 528.708 202.824H536.484C539.556 202.824 542.052 203.88 543.972 205.992C545.892 208.104 546.852 210.792 546.852 214.056C546.852 217.32 545.7 220.008 543.396 222.12C541.092 224.04 538.212 225 534.756 225H528.708ZM456.996 92.52C454.116 92.52 451.716 91.656 449.796 89.928C447.876 88.008 446.916 85.704 446.916 83.016C446.916 80.136 447.876 77.832 449.796 76.104C451.716 74.184 454.116 73.224 456.996 73.224H530.436C533.316 73.224 535.716 74.184 537.636 76.104C539.556 77.832 540.516 80.136 540.516 83.016C540.516 85.704 539.556 88.008 537.636 89.928C535.716 91.656 533.316 92.52 530.436 92.52H456.996ZM718.023 225C714.759 225 712.071 223.944 709.959 221.832C707.847 219.72 706.791 217.128 706.791 214.056V139.176C706.791 127.272 704.487 117.48 699.879 109.8C695.463 102.12 689.319 96.36 681.447 92.52C673.767 88.68 665.031 86.76 655.239 86.76C645.831 86.76 637.287 88.584 629.607 92.232C622.119 95.88 616.167 100.872 611.751 107.208C607.335 113.544 605.127 120.744 605.127 128.808H589.287C589.671 116.712 592.935 105.96 599.079 96.552C605.223 86.952 613.383 79.464 623.559 74.088C633.735 68.52 645.063 65.736 657.543 65.736C671.175 65.736 683.367 68.616 694.119 74.376C704.871 79.944 713.319 88.2 719.463 99.144C725.799 110.088 728.967 123.432 728.967 139.176V214.056C728.967 217.128 727.911 219.72 725.799 221.832C723.687 223.944 721.095 225 718.023 225ZM594.183 225C590.727 225 587.943 224.04 585.831 222.12C583.911 220.008 582.951 217.32 582.951 214.056V78.696C582.951 75.24 583.911 72.552 585.831 70.632C587.943 68.52 590.727 67.464 594.183 67.464C597.447 67.464 600.039 68.52 601.959 70.632C604.071 72.552 605.127 75.24 605.127 78.696V214.056C605.127 217.32 604.071 220.008 601.959 222.12C600.039 224.04 597.447 225 594.183 225ZM594.183 160.776C590.727 160.776 587.943 159.72 585.831 157.608C583.911 155.496 582.951 152.808 582.951 149.544V11.304C582.951 7.84799 583.911 5.15999 585.831 3.23999C587.943 1.12799 590.727 0.0719948 594.183 0.0719948C597.447 0.0719948 600.039 1.12799 601.959 3.23999C604.071 5.15999 605.127 7.84799 605.127 11.304V149.544C605.127 152.808 604.071 155.496 601.959 157.608C600.039 159.72 597.447 160.776 594.183 160.776Z" fill="black"/>
</svg>
